<svg class="indicator__icon" xmlns="http://www.w3.org/2000/svg" fill="#FFFF00" height="24" viewBox="0 0 28 28" width="24">
  <path d="M 0 0 h 24 v 24 H 0 Z" fill="none"></path>
  <path d="M 12 6 c 0 -0.55 -0.45 -1 -1 -1 H 5.82 l 0.66 -3.18 l 0.02 -0.23 c 0 -0.31 -0.13
                  -0.59 -0.33 -0.8 L 5.38 0 L 0.44 4.94 C 0.17 5.21 0 5.59 0 6 v 6.5 c 0 0.83 0.67 1.5 1.5
                  1.5 h 6.75 c 0.62 0 1.15 -0.38 1.38 -0.91 l 2.26 -5.29 c 0.07 -0.17 0.11 -0.36 0.11
                  -0.55 V 6 Z m 10.5 4 h -6.75 c -0.62 0 -1.15 0.38 -1.38 0.91 l -2.26 5.29 c -0.07 0.17
                  -0.11 0.36 -0.11 0.55 V 18 c 0 0.55 0.45 1 1 1 h 5.18 l -0.66 3.18 l -0.02 0.24 c 0 0.31
                  0.13 0.59 0.33 0.8 l 0.79 0.78 l 4.94 -4.94 c 0.27 -0.27 0.44 -0.65 0.44 -1.06 v -6.5 c 0
                  -0.83 -0.67 -1.5 -1.5 -1.5 Z"></path>
</svg>
